#define pause_up_width 24
#define pause_up_height 24
static char pause_up_bits[] = {
   0x00, 0x00, 0x00, 0x00, 0x00, 0x00, 0x00, 0x00, 0x00, 0x00, 0x00, 0x00,
   0x00, 0x00, 0x00, 0x00, 0x00, 0x00, 0x00, 0x00, 0x00, 0x80, 0xe7, 0x01,
   0x80, 0x24, 0x01, 0x80, 0x24, 0x01, 0x80, 0x24, 0x01, 0x80, 0x24, 0x01,
   0x80, 0x24, 0x01, 0x80, 0x24, 0x01, 0x80, 0x24, 0x01, 0x80, 0xe7, 0x01,
   0x00, 0x00, 0x00, 0x00, 0x00, 0x00, 0x00, 0x00, 0x00, 0x00, 0x00, 0x00,
   0x00, 0x00, 0x00, 0x00, 0x00, 0x00, 0x00, 0x00, 0x00, 0x00, 0x00, 0x00};
