#define pause_down_width 24
#define pause_down_height 24
static char pause_down_bits[] = {
   0x00, 0x00, 0x00, 0x00, 0x00, 0x00, 0x00, 0x00, 0x00, 0x00, 0x00, 0x00,
   0x00, 0x00, 0x00, 0x00, 0x00, 0x00, 0x00, 0x00, 0x00, 0x80, 0xe7, 0x01,
   0x80, 0xe7, 0x01, 0x80, 0xe7, 0x01, 0x80, 0xe7, 0x01, 0x80, 0xe7, 0x01,
   0x80, 0xe7, 0x01, 0x80, 0xe7, 0x01, 0x80, 0xe7, 0x01, 0x80, 0xe7, 0x01,
   0x00, 0x00, 0x00, 0x00, 0x00, 0x00, 0x00, 0x00, 0x00, 0x00, 0x00, 0x00,
   0x00, 0x00, 0x00, 0x00, 0x00, 0x00, 0x00, 0x00, 0x00, 0x00, 0x00, 0x00};
