#define play_up_width 24
#define play_up_height 24
static char play_up_bits[] = {
   0x00, 0x00, 0x00, 0x00, 0x00, 0x00, 0x00, 0x00, 0x00, 0x00, 0x00, 0x00,
   0x00, 0x00, 0x00, 0x40, 0x00, 0x00, 0xc0, 0x00, 0x00, 0x40, 0x03, 0x00,
   0x40, 0x0c, 0x00, 0x40, 0x30, 0x00, 0x40, 0xc0, 0x00, 0x40, 0x00, 0x01,
   0x40, 0xc0, 0x00, 0x40, 0x30, 0x00, 0x40, 0x0c, 0x00, 0x40, 0x03, 0x00,
   0xc0, 0x00, 0x00, 0x40, 0x00, 0x00, 0x00, 0x00, 0x00, 0x00, 0x00, 0x00,
   0x00, 0x00, 0x00, 0x00, 0x00, 0x00, 0x00, 0x00, 0x00, 0x00, 0x00, 0x00};
