#define play_down_width 24
#define play_down_height 24
static char play_down_bits[] = {
   0x00, 0x00, 0x00, 0x00, 0x00, 0x00, 0x00, 0x00, 0x00, 0x00, 0x00, 0x00,
   0x00, 0x00, 0x00, 0x40, 0x00, 0x00, 0xc0, 0x00, 0x00, 0xc0, 0x03, 0x00,
   0xc0, 0x0f, 0x00, 0xc0, 0x3f, 0x00, 0xc0, 0xff, 0x00, 0xc0, 0xff, 0x01,
   0xc0, 0xff, 0x00, 0xc0, 0x3f, 0x00, 0xc0, 0x0f, 0x00, 0xc0, 0x03, 0x00,
   0xc0, 0x00, 0x00, 0x40, 0x00, 0x00, 0x00, 0x00, 0x00, 0x00, 0x00, 0x00,
   0x00, 0x00, 0x00, 0x00, 0x00, 0x00, 0x00, 0x00, 0x00, 0x00, 0x00, 0x00};
