#define record_down_width 24
#define record_down_height 24
static char record_down_bits[] = {
   0x00, 0x00, 0x00, 0x00, 0x00, 0x00, 0x00, 0x00, 0x00, 0x00, 0x00, 0x00,
   0x00, 0x00, 0x00, 0x00, 0x00, 0x00, 0x00, 0x00, 0x00, 0x00, 0x3c, 0x18,
   0x00, 0xff, 0x3c, 0x00, 0xff, 0x3c, 0x80, 0xff, 0x19, 0x80, 0xff, 0x19,
   0x80, 0xff, 0x19, 0x00, 0xff, 0x00, 0x00, 0xff, 0x18, 0x00, 0x3c, 0x18,
   0x00, 0x00, 0x00, 0x00, 0x00, 0x00, 0x00, 0x00, 0x00, 0x00, 0x00, 0x00,
   0x00, 0x00, 0x00, 0x00, 0x00, 0x00, 0x00, 0x00, 0x00, 0x00, 0x00, 0x00};
