#define stop_down_width 24
#define stop_down_height 24
static char stop_down_bits[] = {
   0x00, 0x00, 0x00, 0x00, 0x00, 0x00, 0x00, 0x00, 0x00, 0x00, 0x00, 0x00,
   0x00, 0x00, 0x00, 0x00, 0x00, 0x00, 0x00, 0x00, 0x00, 0x80, 0xff, 0x01,
   0x80, 0xff, 0x01, 0x80, 0xff, 0x01, 0x80, 0xff, 0x01, 0x80, 0xff, 0x01,
   0x80, 0xff, 0x01, 0x80, 0xff, 0x01, 0x80, 0xff, 0x01, 0x80, 0xff, 0x01,
   0x00, 0x00, 0x00, 0x00, 0x00, 0x00, 0x00, 0x00, 0x00, 0x00, 0x00, 0x00,
   0x00, 0x00, 0x00, 0x00, 0x00, 0x00, 0x00, 0x00, 0x00, 0x00, 0x00, 0x00};
