#define debug2.t.bm_width 16
#define debug2.t.bm_height 16
#define debug2.t.bm_x_hot 0
#define debug2.t.bm_y_hot 0
static unsigned char debug2.t.bm_bits[] = {
   0xff, 0xff, 0x1f, 0xf1, 0x67, 0xcc, 0x87, 0xc3, 0xe7, 0xcd, 0x93, 0x91,
   0xc3, 0x85, 0xef, 0xef, 0x93, 0x92, 0xd3, 0x97, 0x43, 0x85, 0x47, 0xc4,
   0x27, 0xc9, 0x2f, 0xe9, 0x3f, 0xf9, 0xff, 0xff};
/* ident	"@(#)debugger:libmotif/common/debug.t.bm	1.1" */
